HIERARCHY
ROOT Hips
{
	OFFSET	0.00	0.00	0.00
	CHANNELS 6 Xposition Yposition Zposition Zrotation Xrotation Yrotation
	JOINT LeftUpLeg
	{
		OFFSET	 0.126116	-0.014019	-0.065224
		CHANNELS 3 Zrotation Xrotation Yrotation
		JOINT LeftLeg
		{
			OFFSET	 0.000000	 0.000000	 0.569914
			CHANNELS 3 Zrotation Xrotation Yrotation
			JOINT LeftFoot
			{
				OFFSET	 0.000000	 0.000000	 0.544423
				CHANNELS 3 Zrotation Xrotation Yrotation
				JOINT LeftToeBase
				{
					OFFSET	 0.000000	 0.000000	 0.207117
					CHANNELS 3 Zrotation Xrotation Yrotation
					End Site
					{
						OFFSET	 0.000000	 0.000000	 0.207117
					}
				}
			}
		}
	}
	JOINT RightUpLeg
	{
		OFFSET	-0.124023	-0.008373	-0.065224
		CHANNELS 3 Zrotation Xrotation Yrotation
		JOINT RightLeg
		{
			OFFSET	 0.000000	 0.000000	 0.570047
			CHANNELS 3 Zrotation Xrotation Yrotation
			JOINT RightFoot
			{
				OFFSET	 0.000000	 0.000000	 0.544354
				CHANNELS 3 Zrotation Xrotation Yrotation
				JOINT RightToeBase
				{
					OFFSET	 0.000000	 0.000000	 0.207540
					CHANNELS 3 Zrotation Xrotation Yrotation
					End Site
					{
						OFFSET	 0.000000	 0.000000	 0.207540
					}
				}
			}
		}
	}
	JOINT Spine
	{
		OFFSET	 0.000184	-0.007763	 0.117403
		CHANNELS 3 Zrotation Xrotation Yrotation
		JOINT Spine1
		{
			OFFSET	 0.000000	 0.000000	 0.137269
			CHANNELS 3 Zrotation Xrotation Yrotation
			JOINT Spine2
			{
				OFFSET	 0.000000	 0.000000	 0.156879
				CHANNELS 3 Zrotation Xrotation Yrotation
				JOINT LeftShoulder
				{
					OFFSET	 0.080501	-0.002496	 0.160144
					CHANNELS 3 Zrotation Xrotation Yrotation
					JOINT LeftArm
					{
						OFFSET	 0.000000	 0.000000	 0.164363
						CHANNELS 3 Zrotation Xrotation Yrotation
						JOINT LeftForeArm
						{
							OFFSET	 0.000000	 0.000000	 0.364576
							CHANNELS 3 Zrotation Xrotation Yrotation
							JOINT LeftHand
							{
								OFFSET	 0.000000	 0.000000	 0.360812
								CHANNELS 3 Zrotation Xrotation Yrotation
								JOINT LeftHandIndex1
								{
									OFFSET	 0.000000	 0.000000	 0.086006
									CHANNELS 3 Zrotation Xrotation Yrotation
									JOINT LeftHandIndex2
									{
										OFFSET	 0.000000	 0.000000	 0.047236
										CHANNELS 3 Zrotation Xrotation Yrotation
										JOINT LeftHandIndex3
										{
											OFFSET	-0.004284	-0.000551	 0.038166
											CHANNELS 3 Zrotation Xrotation Yrotation
											End Site
											{
												OFFSET	-0.004284	-0.000551	 0.038166
											}
										}
									}
								}
							}
						}
					}
				}
				JOINT Neck
				{
					OFFSET	 0.000000	 0.000000	 0.176489
					CHANNELS 3 Zrotation Xrotation Yrotation
					JOINT Head
					{
						OFFSET	 0.000000	-0.001747	 0.077940
						CHANNELS 3 Zrotation Xrotation Yrotation
						End Site
						{
							OFFSET	 0.000000	-0.001747	 0.077940
						}
					}
				}
				JOINT RightShoulder
				{
					OFFSET	-0.080363	 0.000306	 0.159706
					CHANNELS 3 Zrotation Xrotation Yrotation
					JOINT RightArm
					{
						OFFSET	 0.000000	 0.000000	 0.164196
						CHANNELS 3 Zrotation Xrotation Yrotation
						JOINT RightForeArm
						{
							OFFSET	 0.000000	 0.000000	 0.365611
							CHANNELS 3 Zrotation Xrotation Yrotation
							JOINT RightHand
							{
								OFFSET	 0.000000	 0.000000	 0.360648
								CHANNELS 3 Zrotation Xrotation Yrotation
								JOINT RightHandIndex1
								{
									OFFSET	 0.000000	 0.000000	 0.069977
									CHANNELS 3 Zrotation Xrotation Yrotation
									JOINT RightHandIndex2
									{
										OFFSET	 0.000000	 0.000000	 0.052305
										CHANNELS 3 Zrotation Xrotation Yrotation
										JOINT RightHandIndex3
										{
											OFFSET	 0.009002	-0.000782	 0.042196
											CHANNELS 3 Zrotation Xrotation Yrotation
											End Site
											{
												OFFSET	 0.009002	-0.000782	 0.042196
											}
										}
									}
								}
							}
						}
					}
				}
			}
		}
	}
}
MOTION
Frames:    4
Frame Time: 0.03333334
-3.958142	-15.497690	 0.222712	-32.072990	 8.014340	 1.693424	 4.522042	-22.016480	 174.191200	-1.646664	-39.946910	-0.194794	 0.063559	 84.608540	-0.533597	-2.385738	 28.475140	-0.000476	-2.487436	-22.895450	-178.752300	-0.119841	-40.861000	-0.004269	-0.182251	 85.535420	 0.420571	 2.407686	 17.349470	-0.225244	 7.584378	 7.594772	-0.793218	 13.157290	 4.833368	-2.522296	 15.993180	 2.952686	 0.650683	-115.595300	 89.397690	-153.635700	 56.145530	 60.051750	-78.303080	-3.694844	-4.412434	-20.726550	 6.688230	-2.196639	-5.336626	-3.812334	 37.924440	-2.927599	-2.450526	 36.184240	 0.754587	-1.378229	 35.397820	-2.634230	 0.458857	 2.660222	-0.638396	 4.686580	 6.521987	-0.945741	 94.723790	 86.914030	 171.582500	-53.517210	 70.345940	 71.697440	-3.207100	-13.008670	 25.787490	-24.131310	-3.183268	 9.585173	 6.437017	 35.671460	-0.771858	 2.830251	 35.756010	-7.813440	-2.350882	 35.473990	 5.254307
-3.956778	-15.497070	 0.225963	-32.107420	 8.044182	 1.806743	 4.499372	-22.452660	 174.100300	-1.743900	-40.741260	-0.291355	 0.065130	 84.868820	-0.632009	-2.385487	 28.531120	-0.001695	-2.443488	-23.304710	-178.769300	-0.082093	-41.474210	 0.061247	-0.493847	 85.757300	 0.809190	 2.407674	 17.769650	-0.217038	 7.330372	 7.578192	-0.901150	 13.037920	 4.522927	-2.535752	 15.863790	 2.566768	 0.699085	-115.495200	 89.386430	-153.698600	 55.747840	 59.085980	-77.846460	-3.776268	-4.120469	-21.451010	 5.569832	-2.174402	-5.349429	-3.812334	 37.924440	-2.927599	-2.450526	 36.184240	 0.754587	-1.378229	 35.397820	-2.634230	 0.442606	 2.492908	-0.588134	 4.649323	 6.393765	-1.007628	 94.723120	 86.891590	 171.549000	-53.296910	 69.633130	 71.859600	-3.113587	-12.905970	 26.312180	-23.499800	-3.153316	 9.596463	 6.437017	 35.671460	-0.771858	 2.830251	 35.756010	-7.813440	-2.350882	 35.473990	 5.254307
-3.953328	-15.494550	 0.221199	-32.244340	 8.079791	 1.848796	 4.598582	-23.612230	 174.021800	-1.873315	-42.369100	-0.347520	 0.465530	 85.346210	-1.063220	-2.384975	 28.644130	-0.004139	-2.403750	-24.285430	-178.667200	-0.056477	-42.909530	 0.144661	-1.050214	 86.150350	 1.444216	 2.407555	 18.333890	-0.205980	 6.653176	 7.774437	-0.990469	 12.811230	 4.073084	-2.517962	 15.567280	 1.979822	 0.765974	-114.192300	 89.324200	-154.871900	 54.533160	 57.599050	-77.131110	-3.703815	-3.891207	-23.077570	 4.298083	-2.093657	-5.379961	-3.812334	 37.924440	-2.927599	-2.450526	 36.184240	 0.754587	-1.378229	 35.397820	-2.634230	 0.396028	 2.020797	-0.552535	 4.529833	 6.309204	-1.006813	 94.777630	 86.863750	 171.412800	-52.325890	 68.203840	 71.741850	-2.862123	-12.914020	 27.883580	-22.275200	-3.067231	 9.618715	 6.437017	 35.671460	-0.771858	 2.830251	 35.756010	-7.813440	-2.350882	 35.473990	 5.254307
-3.950976	-15.492410	 0.217886	-32.342420	 8.156276	 1.855034	 4.707894	-24.343780	 174.002300	-1.972158	-43.432770	-0.365919	 0.691053	 85.645450	-1.285291	-2.384649	 28.716320	-0.005705	-2.380417	-25.083340	-178.597900	-0.092478	-43.909740	 0.162329	-1.391042	 86.393000	 1.789292	 2.407399	 18.740730	-0.197980	 6.165295	 7.980591	-1.042611	 12.665470	 3.840641	-2.498340	 15.397450	 1.683061	 0.797549	-113.362200	 89.282910	-155.623700	 53.662930	 56.978360	-76.859460	-3.730172	-3.898436	-24.248190	 3.880498	-2.038011	-5.398276	-3.812334	 37.924440	-2.927599	-2.450526	 36.184240	 0.754587	-1.378229	 35.397820	-2.634230	 0.379018	 1.737396	-0.545481	 4.467594	 6.240430	-0.905288	 94.817380	 86.834240	 171.298400	-51.641640	 67.403080	 71.765930	-2.576842	-12.952690	 28.947530	-21.555380	-2.994791	 9.645541	 6.437017	 35.671460	-0.771858	 2.830251	 35.756010	-7.813440	-2.350882	 35.473990	 5.254307
